<svg width="657.9px" height="122px" xmlns="http://www.w3.org/2000/svg" viewBox="-78.94687499999998 14 657.89375 122" style="background: rgb(253, 253, 253)" preserveAspectRatio="xMidYMid"><defs><filter id="editing-neon" x="-100%" y="-100%" width="300%" height="300%"><feFlood flood-color="#b81d1d" result="flood"></feFlood><feComposite operator="in" in="flood" in2="SourceAlpha" result="color"></feComposite><feFlood flood-color="#b81d1d" result="flood2"></feFlood><feComposite operator="in" in="flood2" in2="SourceAlpha" result="color2"></feComposite><feMorphology operator="dilate" radius="2" in="color" result="dilate"></feMorphology><feGaussianBlur stdDeviation="6" in="color" result="blur1"></feGaussianBlur><feGaussianBlur stdDeviation="2.5" in="color" result="blur2"></feGaussianBlur><feGaussianBlur stdDeviation="1" in="SourceAlpha" result="blur3"></feGaussianBlur><feGaussianBlur stdDeviation="6" in="dilate" result="blur4"></feGaussianBlur><feConvolveMatrix in="color2" result="conv" order="3,3" divisor="1" kernelMatrix="1 1 1  1 1 1  1 1 1"></feConvolveMatrix><feMerge><feMergeNode in="blur1"></feMergeNode><feMergeNode in="blur2"></feMergeNode><feMergeNode in="blur4"></feMergeNode><feMergeNode in="blur3"></feMergeNode><feMergeNode in="blur3"></feMergeNode><feMergeNode in="blur3"></feMergeNode><feMergeNode in="blur3"></feMergeNode><feMergeNode in="conv"></feMergeNode><feMergeNode in="SourceGraphic"></feMergeNode></feMerge></filter></defs><g filter="url(#editing-neon)"><g transform="matrix(1.3,0,0,1.5,-37.7,169.9)"><path d="M 1.2 -48.5 L -12.8 -48.5 L -4.7 -90.7 L 9.4 -90.7 L 1.2 -48.5 Z M 56.9 -47.2 L 56.9 -47.2 L 56.9 -47.2 Q 49.2 -47.2 49.2 -53.2 L 49.2 -53.2 L 49.2 -53.2 Q 49.2 -55.9 50.3 -60.9 L 50.3 -60.9 L 50.3 -60.9 Q 51.4 -66 51.8 -68.1 L 51.8 -68.1 L 51.8 -68.1 Q 52.7 -72.8 52.7 -74.2 L 52.7 -74.2 L 52.7 -74.2 Q 52.7 -77.5 50.2 -77.5 L 50.2 -77.5 L 50.2 -77.5 Q 48.6 -77.5 47.1 -75.3 L 47.1 -75.3 L 47.1 -75.3 Q 45.6 -73.1 44.9 -68.7 L 44.9 -68.7 L 40.9 -48.5 L 28.4 -47.2 L 31.9 -64.6 L 31.9 -64.6 Q 32.4 -67.5 33 -70.8 L 33 -70.8 L 33 -70.8 Q 33.5 -74 33.5 -74.6 L 33.5 -74.6 L 33.5 -74.6 Q 33.5 -77.5 31.3 -77.5 L 31.3 -77.5 L 31.3 -77.5 Q 29.8 -77.5 28.2 -75.3 L 28.2 -75.3 L 28.2 -75.3 Q 26.6 -73.1 25.7 -68.7 L 25.7 -68.7 L 21.8 -48.5 L 9.2 -47.2 L 15.9 -81.1 L 26.4 -82.4 L 25.3 -76 L 25.3 -76 Q 26.9 -79.4 30 -80.9 L 30 -80.9 L 30 -80.9 Q 33.1 -82.4 37.9 -82.4 L 37.9 -82.4 L 37.9 -82.4 Q 40.6 -82.4 42.4 -81.1 L 42.4 -81.1 L 42.4 -81.1 Q 44.2 -79.7 44.8 -77.6 L 44.8 -77.6 L 44.8 -77.6 Q 45.9 -79.8 48.7 -81.1 L 48.7 -81.1 L 48.7 -81.1 Q 51.5 -82.4 54.9 -82.4 L 54.9 -82.4 L 54.9 -82.4 Q 58.3 -82.4 60 -81.7 L 60 -81.7 L 60 -81.7 Q 61.7 -81 62.7 -79.7 L 62.7 -79.7 L 62.7 -79.7 Q 64.4 -77.5 64.4 -73.4 L 64.4 -73.4 L 64.4 -73.4 Q 64.4 -69.4 62.7 -61 L 62.7 -61 L 62.7 -61 Q 61.8 -56.9 61.8 -55.4 L 61.8 -55.4 L 61.8 -55.4 Q 61.8 -53.9 62.7 -53 L 62.7 -53 L 62.7 -53 Q 63.6 -52.1 64.8 -52 L 64.8 -52 L 64.8 -52 Q 64.2 -49.8 62 -48.5 L 62 -48.5 L 62 -48.5 Q 59.8 -47.2 56.9 -47.2 Z M 72.5 -50.4 L 72.5 -50.4 L 72.5 -50.4 Q 71 -52.1 70.4 -54.7 L 70.4 -54.7 L 70.4 -54.7 Q 69.7 -57.3 69.7 -61.6 L 69.7 -61.6 L 69.7 -61.6 Q 69.7 -65.9 71.2 -69.8 L 71.2 -69.8 L 71.2 -69.8 Q 72.6 -73.7 75.3 -76.5 L 75.3 -76.5 L 75.3 -76.5 Q 80.8 -82.4 89.9 -82.4 L 89.9 -82.4 L 89.9 -82.4 Q 93.2 -82.4 95.6 -81.3 L 95.6 -81.3 L 106.5 -82.4 L 101.8 -57.5 L 101.8 -57.5 Q 101.6 -56.7 101.6 -55.3 L 101.6 -55.3 L 101.6 -55.3 Q 101.6 -53.9 102.4 -53 L 102.4 -53 L 102.4 -53 Q 103.3 -52.1 104.6 -52 L 104.6 -52 L 104.6 -52 Q 103.9 -49.8 101.6 -48.5 L 101.6 -48.5 L 101.6 -48.5 Q 99.3 -47.2 96.6 -47.2 L 96.6 -47.2 L 96.6 -47.2 Q 94 -47.2 92.3 -48.2 L 92.3 -48.2 L 92.3 -48.2 Q 90.5 -49.2 90 -50.9 L 90 -50.9 L 90 -50.9 Q 89 -49.3 86.8 -48.2 L 86.8 -48.2 L 86.8 -48.2 Q 84.6 -47.2 81.7 -47.2 L 81.7 -47.2 L 81.7 -47.2 Q 78.8 -47.2 76.4 -48 L 76.4 -48 L 76.4 -48 Q 74 -48.8 72.5 -50.4 Z M 86 -76.4 L 86 -76.4 L 86 -76.4 Q 85.3 -75.3 84.7 -73.3 L 84.7 -73.3 L 84.7 -73.3 Q 84 -71.4 83 -66.1 L 83 -66.1 L 83 -66.1 Q 81.9 -60.9 81.9 -57.2 L 81.9 -57.2 L 81.9 -57.2 Q 81.9 -53.5 82.5 -52.4 L 82.5 -52.4 L 82.5 -52.4 Q 83.1 -51.3 84.1 -51.3 L 84.1 -51.3 L 84.1 -51.3 Q 86.1 -51.3 87.6 -53.3 L 87.6 -53.3 L 87.6 -53.3 Q 89.2 -55.2 89.7 -58.7 L 89.7 -58.7 L 93.1 -77.4 L 93.1 -77.4 Q 91.8 -78.6 90.2 -78.6 L 90.2 -78.6 L 90.2 -78.6 Q 88.6 -78.6 87.7 -78.1 L 87.7 -78.1 L 87.7 -78.1 Q 86.8 -77.6 86 -76.4 Z M 114.2 -75.3 L 114.2 -75.3 L 114.2 -75.3 Q 116.4 -78.3 119.7 -80.4 L 119.7 -80.4 L 119.7 -80.4 Q 123 -82.4 127 -82.4 L 127 -82.4 L 127 -82.4 Q 131.1 -82.4 133 -81.1 L 133 -81.1 L 145.5 -82.4 L 141.2 -57.8 L 141.2 -57.8 Q 138.9 -45.3 134.2 -40.4 L 134.2 -40.4 L 134.2 -40.4 Q 129.7 -35.7 120.8 -35.7 L 120.8 -35.7 L 120.8 -35.7 Q 114.1 -35.7 110.3 -37.8 L 110.3 -37.8 L 110.3 -37.8 Q 106.4 -39.9 106.4 -43.4 L 106.4 -43.4 L 106.4 -43.4 Q 106.4 -46.1 108.4 -47.6 L 108.4 -47.6 L 108.4 -47.6 Q 110.4 -49.1 113.5 -49.1 L 113.5 -49.1 L 113.5 -49.1 Q 116.2 -49.1 118.2 -47.9 L 118.2 -47.9 L 118.2 -47.9 Q 119.4 -47.2 120 -46.3 L 120 -46.3 L 120 -46.3 Q 118.5 -45 118.5 -42.9 L 118.5 -42.9 L 118.5 -42.9 Q 118.5 -40.2 121.1 -40.2 L 121.1 -40.2 L 121.1 -40.2 Q 125.4 -40.2 127.8 -50.3 L 127.8 -50.3 L 127.8 -50.3 Q 128.5 -53 129.1 -55.8 L 129.1 -55.8 L 129.1 -55.8 Q 126.2 -52.3 119.7 -52.3 L 119.7 -52.3 L 119.7 -52.3 Q 115.1 -52.3 112.5 -54.5 L 112.5 -54.5 L 112.5 -54.5 Q 109.9 -56.6 109.9 -61.8 L 109.9 -61.8 L 109.9 -61.8 Q 109.9 -64.9 111 -68.6 L 111 -68.6 L 111 -68.6 Q 112.1 -72.2 114.2 -75.3 Z M 122.6 -61.6 L 122.6 -61.6 L 122.6 -61.6 Q 122.6 -57.2 124.8 -57.2 L 124.8 -57.2 L 124.8 -57.2 Q 126.3 -57.2 127.8 -58.9 L 127.8 -58.9 L 127.8 -58.9 Q 129 -60.2 129.4 -62.2 L 129.4 -62.2 L 132.7 -78.6 L 132.7 -78.6 Q 132.4 -78.7 132 -78.8 L 132 -78.8 L 132 -78.8 Q 131.4 -79.1 130.6 -79.1 L 130.6 -79.1 L 130.6 -79.1 Q 126.7 -79.1 124.4 -72.7 L 124.4 -72.7 L 124.4 -72.7 Q 122.6 -67.7 122.6 -61.6 Z M 174 -59.3 L 174 -59.3 L 174 -59.3 Q 175.6 -58.2 175.6 -55.8 L 175.6 -55.8 L 175.6 -55.8 Q 175.6 -53.4 174.3 -51.9 L 174.3 -51.9 L 174.3 -51.9 Q 173.1 -50.4 171.1 -49.3 L 171.1 -49.3 L 171.1 -49.3 Q 167 -47.2 162.6 -47.2 L 162.6 -47.2 L 162.6 -47.2 Q 158.2 -47.2 155.6 -48.2 L 155.6 -48.2 L 155.6 -48.2 Q 153 -49.1 151.3 -50.9 L 151.3 -50.9 L 151.3 -50.9 Q 147.9 -54.3 147.9 -60.5 L 147.9 -60.5 L 147.9 -60.5 Q 147.9 -70.2 153.2 -76.1 L 153.2 -76.1 L 153.2 -76.1 Q 158.8 -82.4 168.6 -82.4 L 168.6 -82.4 L 168.6 -82.4 Q 174.7 -82.4 177.7 -79.9 L 177.7 -79.9 L 177.7 -79.9 Q 179.9 -77.9 179.9 -74.8 L 179.9 -74.8 L 179.9 -74.8 Q 179.9 -63.5 160.4 -63.5 L 160.4 -63.5 L 160.4 -63.5 Q 160.2 -61.9 160.2 -60.5 L 160.2 -60.5 L 160.2 -60.5 Q 160.2 -57.5 161.5 -56.4 L 161.5 -56.4 L 161.5 -56.4 Q 162.8 -55.3 165.2 -55.3 L 165.2 -55.3 L 165.2 -55.3 Q 167.7 -55.3 170.3 -56.4 L 170.3 -56.4 L 170.3 -56.4 Q 172.9 -57.5 174 -59.3 Z M 160.9 -66.3 L 160.9 -66.3 L 160.9 -66.3 Q 165.4 -66.3 168.1 -69.1 L 168.1 -69.1 L 168.1 -69.1 Q 170.7 -71.8 170.7 -76.1 L 170.7 -76.1 L 170.7 -76.1 Q 170.7 -77.6 170.1 -78.4 L 170.1 -78.4 L 170.1 -78.4 Q 169.6 -79.2 168.5 -79.2 L 168.5 -79.2 L 168.5 -79.2 Q 167.4 -79.2 166.5 -78.7 L 166.5 -78.7 L 166.5 -78.7 Q 165.6 -78.3 164.6 -76.9 L 164.6 -76.9 L 164.6 -76.9 Q 162.2 -73.7 160.9 -66.3 Z M 201.2 -71 L 201.2 -71 L 201.2 -71 Q 202.1 -73.3 202.1 -75.4 L 202.1 -75.4 L 202.1 -75.4 Q 202.1 -79.2 199 -79.2 L 199 -79.2 L 199 -79.2 Q 197.4 -79.2 196.1 -77.7 L 196.1 -77.7 L 196.1 -77.7 Q 194.8 -76.3 194.8 -74.5 L 194.8 -74.5 L 194.8 -74.5 Q 194.8 -73.2 195.8 -72.2 L 195.8 -72.2 L 195.8 -72.2 Q 197.3 -70.8 201.1 -68.5 L 201.1 -68.5 L 201.1 -68.5 Q 204.9 -66.2 206.3 -64.3 L 206.3 -64.3 L 206.3 -64.3 Q 207.7 -62.4 207.7 -59.8 L 207.7 -59.8 L 207.7 -59.8 Q 207.7 -57.2 206.5 -54.8 L 206.5 -54.8 L 206.5 -54.8 Q 205.2 -52.5 203 -50.8 L 203 -50.8 L 203 -50.8 Q 198.2 -47.2 190.5 -47.2 L 190.5 -47.2 L 190.5 -47.2 Q 186.4 -47.2 183.2 -49.4 L 183.2 -49.4 L 183.2 -49.4 Q 180 -51.5 180 -54 L 180 -54 L 180 -54 Q 180 -56.5 181.8 -58 L 181.8 -58 L 181.8 -58 Q 183.6 -59.4 186.3 -59.4 L 186.3 -59.4 L 186.3 -59.4 Q 189 -59.4 190.7 -58.4 L 190.7 -58.4 L 190.7 -58.4 Q 189.8 -56.3 189.8 -54.9 L 189.8 -54.9 L 189.8 -54.9 Q 189.8 -50.7 193.4 -50.7 L 193.4 -50.7 L 193.4 -50.7 Q 194.9 -50.7 196 -51.6 L 196 -51.6 L 196 -51.6 Q 197 -52.6 197 -54.3 L 197 -54.3 L 197 -54.3 Q 197 -57.5 191.5 -61 L 191.5 -61 L 191.5 -61 Q 187 -63.9 186 -65.1 L 186 -65.1 L 186 -65.1 Q 184.3 -67.1 184.3 -69.7 L 184.3 -69.7 L 184.3 -69.7 Q 184.3 -72.2 185.5 -74.7 L 185.5 -74.7 L 185.5 -74.7 Q 186.7 -77.1 188.9 -78.8 L 188.9 -78.8 L 188.9 -78.8 Q 193.6 -82.4 201.7 -82.4 L 201.7 -82.4 L 201.7 -82.4 Q 205.9 -82.4 208.4 -80.8 L 208.4 -80.8 L 208.4 -80.8 Q 210.8 -79.1 210.8 -76.3 L 210.8 -76.3 L 210.8 -76.3 Q 210.8 -73.5 209.1 -71.9 L 209.1 -71.9 L 209.1 -71.9 Q 207.4 -70.3 204.4 -70.3 L 204.4 -70.3 L 204.4 -70.3 Q 202.2 -70.3 201.2 -71 Z M 252.3 -69.1 L 265.2 -70.3 L 265.2 -70.3 Q 260.6 -60.2 260.6 -48.4 L 260.6 -48.4 L 260.6 -48.4 Q 258.9 -47.2 256.4 -47.2 L 256.4 -47.2 L 256.4 -47.2 Q 253.8 -47.2 252.2 -48.4 L 252.2 -48.4 L 252.2 -48.4 Q 250.6 -49.6 250.3 -50.8 L 250.3 -50.8 L 250.3 -50.8 Q 248.7 -49.1 246.1 -48.2 L 246.1 -48.2 L 246.1 -48.2 Q 243.5 -47.2 240.8 -47.2 L 240.8 -47.2 L 240.8 -47.2 Q 238 -47.2 235.6 -48.1 L 235.6 -48.1 L 235.6 -48.1 Q 233.2 -49 231.4 -51 L 231.4 -51 L 231.4 -51 Q 227.3 -55.3 227.3 -63.6 L 227.3 -63.6 L 227.3 -63.6 Q 227.3 -76.4 234.1 -84.1 L 234.1 -84.1 L 234.1 -84.1 Q 241.2 -92 253.6 -92 L 253.6 -92 L 253.6 -92 Q 262.3 -92 265.3 -87.5 L 265.3 -87.5 L 265.3 -87.5 Q 266.3 -86.1 266.3 -84.4 L 266.3 -84.4 L 266.3 -84.4 Q 266.3 -82.7 265.6 -81.3 L 265.6 -81.3 L 265.6 -81.3 Q 264.8 -79.9 263.7 -78.7 L 263.7 -78.7 L 263.7 -78.7 Q 260.9 -76.1 257.5 -76.1 L 257.5 -76.1 L 257.5 -76.1 Q 256.2 -76.1 254.9 -76.6 L 254.9 -76.6 L 254.9 -76.6 Q 255.2 -78.5 255.2 -80.8 L 255.2 -80.8 L 255.2 -80.8 Q 255.2 -83 255 -84 L 255 -84 L 255 -84 Q 254.8 -85 254.5 -85.9 L 254.5 -85.9 L 254.5 -85.9 Q 253.6 -87.6 251.8 -87.6 L 251.8 -87.6 L 251.8 -87.6 Q 250 -87.6 248 -85.6 L 248 -85.6 L 248 -85.6 Q 246 -83.7 244.4 -80.5 L 244.4 -80.5 L 244.4 -80.5 Q 240.8 -73.3 240.8 -64.7 L 240.8 -64.7 L 240.8 -64.7 Q 240.8 -60.7 242.4 -57.9 L 242.4 -57.9 L 242.4 -57.9 Q 244 -54.8 247 -54.8 L 247 -54.8 L 247 -54.8 Q 248 -54.8 248.9 -55.3 L 248.9 -55.3 L 248.9 -55.3 Q 249.9 -55.9 250.2 -56.2 L 250.2 -56.2 L 252.3 -69.1 Z M 271.1 -50.4 L 271.1 -50.4 L 271.1 -50.4 Q 269.6 -52.1 269 -54.7 L 269 -54.7 L 269 -54.7 Q 268.3 -57.3 268.3 -61.6 L 268.3 -61.6 L 268.3 -61.6 Q 268.3 -65.9 269.8 -69.8 L 269.8 -69.8 L 269.8 -69.8 Q 271.2 -73.7 273.9 -76.5 L 273.9 -76.5 L 273.9 -76.5 Q 279.4 -82.4 288.5 -82.4 L 288.5 -82.4 L 288.5 -82.4 Q 291.8 -82.4 294.1 -81.3 L 294.1 -81.3 L 305.1 -82.4 L 300.4 -57.5 L 300.4 -57.5 Q 300.2 -56.7 300.2 -55.3 L 300.2 -55.3 L 300.2 -55.3 Q 300.2 -53.9 301 -53 L 301 -53 L 301 -53 Q 301.9 -52.1 303.2 -52 L 303.2 -52 L 303.2 -52 Q 302.5 -49.8 300.2 -48.5 L 300.2 -48.5 L 300.2 -48.5 Q 297.9 -47.2 295.2 -47.2 L 295.2 -47.2 L 295.2 -47.2 Q 292.6 -47.2 290.8 -48.2 L 290.8 -48.2 L 290.8 -48.2 Q 289.1 -49.2 288.6 -50.9 L 288.6 -50.9 L 288.6 -50.9 Q 287.6 -49.3 285.4 -48.2 L 285.4 -48.2 L 285.4 -48.2 Q 283.2 -47.2 280.3 -47.2 L 280.3 -47.2 L 280.3 -47.2 Q 277.4 -47.2 275 -48 L 275 -48 L 275 -48 Q 272.6 -48.8 271.1 -50.4 Z M 284.6 -76.4 L 284.6 -76.4 L 284.6 -76.4 Q 283.9 -75.3 283.3 -73.3 L 283.3 -73.3 L 283.3 -73.3 Q 282.6 -71.4 281.6 -66.1 L 281.6 -66.1 L 281.6 -66.1 Q 280.5 -60.9 280.5 -57.2 L 280.5 -57.2 L 280.5 -57.2 Q 280.5 -53.5 281.1 -52.4 L 281.1 -52.4 L 281.1 -52.4 Q 281.7 -51.3 282.7 -51.3 L 282.7 -51.3 L 282.7 -51.3 Q 284.7 -51.3 286.2 -53.3 L 286.2 -53.3 L 286.2 -53.3 Q 287.7 -55.2 288.3 -58.7 L 288.3 -58.7 L 291.7 -77.4 L 291.7 -77.4 Q 290.4 -78.6 288.8 -78.6 L 288.8 -78.6 L 288.8 -78.6 Q 287.2 -78.6 286.3 -78.1 L 286.3 -78.1 L 286.3 -78.1 Q 285.4 -77.6 284.6 -76.4 Z M 323.8 -52 L 323.8 -52 L 323.8 -52 Q 321.9 -47.2 315.5 -47.2 L 315.5 -47.2 L 315.5 -47.2 Q 312.3 -47.2 310.3 -49.5 L 310.3 -49.5 L 310.3 -49.5 Q 308.6 -51.3 308.6 -53.4 L 308.6 -53.4 L 308.6 -53.4 Q 308.6 -58.2 310.8 -68.7 L 310.8 -68.7 L 315.5 -93.3 L 328.5 -94.6 L 322.3 -62.2 L 322.3 -62.2 Q 321.2 -57.5 321.2 -55.8 L 321.2 -55.8 L 321.2 -55.8 Q 321.2 -52.1 323.8 -52 Z M 344.6 -52 L 344.6 -52 L 344.6 -52 Q 342.6 -47.2 336.3 -47.2 L 336.3 -47.2 L 336.3 -47.2 Q 333.1 -47.2 331 -49.5 L 331 -49.5 L 331 -49.5 Q 329.3 -51.3 329.3 -53.4 L 329.3 -53.4 L 329.3 -53.4 Q 329.3 -58.2 331.6 -68.7 L 331.6 -68.7 L 336.3 -93.3 L 349.2 -94.6 L 343 -62.2 L 343 -62.2 Q 342 -57.5 342 -55.8 L 342 -55.8 L 342 -55.8 Q 342 -52.1 344.6 -52 Z M 375.9 -59.3 L 375.9 -59.3 L 375.9 -59.3 Q 377.5 -58.2 377.5 -55.8 L 377.5 -55.8 L 377.5 -55.8 Q 377.5 -53.4 376.3 -51.9 L 376.3 -51.9 L 376.3 -51.9 Q 375.1 -50.4 373.1 -49.3 L 373.1 -49.3 L 373.1 -49.3 Q 369 -47.2 364.6 -47.2 L 364.6 -47.2 L 364.6 -47.2 Q 360.2 -47.2 357.6 -48.2 L 357.6 -48.2 L 357.6 -48.2 Q 355 -49.1 353.3 -50.9 L 353.3 -50.9 L 353.3 -50.9 Q 349.9 -54.3 349.9 -60.5 L 349.9 -60.5 L 349.9 -60.5 Q 349.9 -70.2 355.1 -76.1 L 355.1 -76.1 L 355.1 -76.1 Q 360.8 -82.4 370.6 -82.4 L 370.6 -82.4 L 370.6 -82.4 Q 376.6 -82.4 379.6 -79.9 L 379.6 -79.9 L 379.6 -79.9 Q 381.9 -77.9 381.9 -74.8 L 381.9 -74.8 L 381.9 -74.8 Q 381.9 -63.5 362.4 -63.5 L 362.4 -63.5 L 362.4 -63.5 Q 362.2 -61.9 362.2 -60.5 L 362.2 -60.5 L 362.2 -60.5 Q 362.2 -57.5 363.5 -56.4 L 363.5 -56.4 L 363.5 -56.4 Q 364.8 -55.3 367.2 -55.3 L 367.2 -55.3 L 367.2 -55.3 Q 369.7 -55.3 372.3 -56.4 L 372.3 -56.4 L 372.3 -56.4 Q 374.8 -57.5 375.9 -59.3 Z M 362.9 -66.3 L 362.9 -66.3 L 362.9 -66.3 Q 367.4 -66.3 370 -69.1 L 370 -69.1 L 370 -69.1 Q 372.7 -71.8 372.7 -76.1 L 372.7 -76.1 L 372.7 -76.1 Q 372.7 -77.6 372.1 -78.4 L 372.1 -78.4 L 372.1 -78.4 Q 371.6 -79.2 370.5 -79.2 L 370.5 -79.2 L 370.5 -79.2 Q 369.4 -79.2 368.5 -78.7 L 368.5 -78.7 L 368.5 -78.7 Q 367.6 -78.3 366.6 -76.9 L 366.6 -76.9 L 366.6 -76.9 Q 364.2 -73.7 362.9 -66.3 Z M 404.1 -66.5 L 404.1 -66.5 L 404.1 -66.5 Q 406.4 -70.6 406.4 -74.7 L 406.4 -74.7 L 406.4 -74.7 Q 406.4 -77.5 404.4 -77.5 L 404.4 -77.5 L 404.4 -77.5 Q 402.9 -77.5 401.3 -74.9 L 401.3 -74.9 L 401.3 -74.9 Q 399.6 -72.2 399.1 -68.9 L 399.1 -68.9 L 395.8 -48.5 L 382.5 -47.2 L 389.1 -81.1 L 399.6 -82.4 L 398.5 -76 L 398.5 -76 Q 401.6 -82.4 408.6 -82.4 L 408.6 -82.4 L 408.6 -82.4 Q 412.4 -82.4 414.4 -80.5 L 414.4 -80.5 L 414.4 -80.5 Q 416.4 -78.6 416.4 -74.6 L 416.4 -74.6 L 416.4 -74.6 Q 416.4 -70.7 413.8 -68.2 L 413.8 -68.2 L 413.8 -68.2 Q 411.2 -65.7 406.8 -65.7 L 406.8 -65.7 L 406.8 -65.7 Q 404.9 -65.7 404.1 -66.5 Z M 437.8 -55.7 L 437.8 -55.7 L 437.8 -55.7 Q 434.4 -52.3 428.4 -52.3 L 428.4 -52.3 L 428.4 -52.3 Q 420.7 -52.3 419.1 -57.8 L 419.1 -57.8 L 419.1 -57.8 Q 418.6 -59.5 418.6 -61.4 L 418.6 -61.4 L 418.6 -61.4 Q 418.6 -63.2 419 -65.1 L 419 -65.1 L 422 -81.1 L 435 -82.4 L 431.5 -63.8 L 431.5 -63.8 Q 431.4 -63 431.2 -62.1 L 431.2 -62.1 L 431.2 -62.1 Q 431 -61.2 431 -60.2 L 431 -60.2 L 431 -60.2 Q 431 -59.3 431.3 -58.7 L 431.3 -58.7 L 431.3 -58.7 Q 431.6 -58.1 432.1 -57.7 L 432.1 -57.7 L 432.1 -57.7 Q 432.8 -57.2 434.2 -57.2 L 434.2 -57.2 L 434.2 -57.2 Q 435.6 -57.2 436.8 -58.9 L 436.8 -58.9 L 436.8 -58.9 Q 438 -60.5 438.5 -63.4 L 438.5 -63.4 L 442 -81.1 L 454.7 -82.4 L 449.9 -57.3 L 449.9 -57.3 Q 447.5 -45 442.6 -40.1 L 442.6 -40.1 L 442.6 -40.1 Q 440.1 -37.6 436.9 -36.6 L 436.9 -36.6 L 436.9 -36.6 Q 433.7 -35.6 429.5 -35.6 L 429.5 -35.6 L 429.5 -35.6 Q 422.8 -35.6 418.9 -37.7 L 418.9 -37.7 L 418.9 -37.7 Q 415.1 -39.9 415.1 -43.4 L 415.1 -43.4 L 415.1 -43.4 Q 415.1 -46 417.1 -47.5 L 417.1 -47.5 L 417.1 -47.5 Q 419.1 -49 422.1 -49 L 422.1 -49 L 422.1 -49 Q 424.8 -49 426.9 -47.9 L 426.9 -47.9 L 426.9 -47.9 Q 428.1 -47.2 428.7 -46.3 L 428.7 -46.3 L 428.7 -46.3 Q 427.2 -45 427.2 -42.9 L 427.2 -42.9 L 427.2 -42.9 Q 427.2 -40.1 429.8 -40.1 L 429.8 -40.1 L 429.8 -40.1 Q 434 -40.1 436.4 -49.8 L 436.4 -49.8 L 436.4 -49.8 Q 437.1 -52.7 437.8 -55.7 Z" fill="none" stroke="#ffbda0" stroke-width="2.3"></path></g></g><style>text {
  font-size: 64px;
  font-family: Arial Black;
  dominant-baseline: central;
  text-anchor: middle;
}</style></svg>